<svg width="25" height="25" viewBox="0 0 25 25" fill="none" xmlns="http://www.w3.org/2000/svg">
<path d="M19.7917 4.16663H5.20832C4.63303 4.16663 4.16666 4.633 4.16666 5.20829V19.7916C4.16666 20.3669 4.63303 20.8333 5.20832 20.8333H19.7917C20.367 20.8333 20.8333 20.3669 20.8333 19.7916V5.20829C20.8333 4.633 20.367 4.16663 19.7917 4.16663Z" stroke="#353A40" stroke-width="2" stroke-linecap="round" stroke-linejoin="round"/>
<path d="M19.7917 4.16663H5.20832C4.63303 4.16663 4.16666 4.633 4.16666 5.20829V19.7916C4.16666 20.3669 4.63303 20.8333 5.20832 20.8333H19.7917C20.367 20.8333 20.8333 20.3669 20.8333 19.7916V5.20829C20.8333 4.633 20.367 4.16663 19.7917 4.16663Z" stroke="black" stroke-opacity="0.2" stroke-width="2" stroke-linecap="round" stroke-linejoin="round"/>
<path d="M16.6667 16.6666H16.6687V16.6686H16.6667V16.6666Z" stroke="#353A40" stroke-width="2" stroke-linecap="round" stroke-linejoin="round"/>
<path d="M16.6667 16.6666H16.6687V16.6686H16.6667V16.6666Z" stroke="black" stroke-opacity="0.2" stroke-width="2" stroke-linecap="round" stroke-linejoin="round"/>
<path d="M12.5 16.6666H12.502V16.6686H12.5V16.6666Z" stroke="#353A40" stroke-width="2" stroke-linecap="round" stroke-linejoin="round"/>
<path d="M12.5 16.6666H12.502V16.6686H12.5V16.6666Z" stroke="black" stroke-opacity="0.2" stroke-width="2" stroke-linecap="round" stroke-linejoin="round"/>
<path d="M8.33334 16.6666H8.33534V16.6686H8.33334V16.6666Z" stroke="#353A40" stroke-width="2" stroke-linecap="round" stroke-linejoin="round"/>
<path d="M8.33334 16.6666H8.33534V16.6686H8.33334V16.6666Z" stroke="black" stroke-opacity="0.2" stroke-width="2" stroke-linecap="round" stroke-linejoin="round"/>
<path d="M16.6667 12.5H16.6687V12.502H16.6667V12.5Z" stroke="#353A40" stroke-width="2" stroke-linecap="round" stroke-linejoin="round"/>
<path d="M16.6667 12.5H16.6687V12.502H16.6667V12.5Z" stroke="black" stroke-opacity="0.2" stroke-width="2" stroke-linecap="round" stroke-linejoin="round"/>
<path d="M12.5 12.5H12.502V12.502H12.5V12.5Z" stroke="#353A40" stroke-width="2" stroke-linecap="round" stroke-linejoin="round"/>
<path d="M12.5 12.5H12.502V12.502H12.5V12.5Z" stroke="black" stroke-opacity="0.2" stroke-width="2" stroke-linecap="round" stroke-linejoin="round"/>
<path d="M8.33334 12.5H8.33534V12.502H8.33334V12.5Z" stroke="#353A40" stroke-width="2" stroke-linecap="round" stroke-linejoin="round"/>
<path d="M8.33334 12.5H8.33534V12.502H8.33334V12.5Z" stroke="black" stroke-opacity="0.2" stroke-width="2" stroke-linecap="round" stroke-linejoin="round"/>
<path d="M4.16666 8.33337H20.8333" stroke="#353A40" stroke-width="2" stroke-linecap="round" stroke-linejoin="round"/>
<path d="M4.16666 8.33337H20.8333" stroke="black" stroke-opacity="0.2" stroke-width="2" stroke-linecap="round" stroke-linejoin="round"/>
<path d="M16.6667 2.08337V4.16671" stroke="#353A40" stroke-width="2" stroke-linecap="round" stroke-linejoin="round"/>
<path d="M16.6667 2.08337V4.16671" stroke="black" stroke-opacity="0.2" stroke-width="2" stroke-linecap="round" stroke-linejoin="round"/>
<path d="M8.33334 2.08337V4.16671" stroke="#353A40" stroke-width="2" stroke-linecap="round" stroke-linejoin="round"/>
<path d="M8.33334 2.08337V4.16671" stroke="black" stroke-opacity="0.2" stroke-width="2" stroke-linecap="round" stroke-linejoin="round"/>
</svg>
