<svg width="19" height="19" viewBox="0 0 19 19" fill="none" xmlns="http://www.w3.org/2000/svg">
<path d="M2.46296 4.65825H16.537V3.25825H2.46296V4.65825ZM16.7167 4.74992V14.2499H18.1167V4.74992H16.7167ZM16.537 14.3416H2.46296V15.7416H16.537V14.3416ZM2.28333 14.2499V4.74992H0.883328V14.2499H2.28333ZM2.46296 14.3416C2.3903 14.3416 2.3379 14.3152 2.30924 14.2894C2.29525 14.2768 2.28869 14.2661 2.28598 14.2603C2.28364 14.2554 2.28333 14.2526 2.28333 14.2499H0.883328C0.883328 15.1413 1.66175 15.7416 2.46296 15.7416V14.3416ZM16.7167 14.2499C16.7167 14.2526 16.7163 14.2554 16.714 14.2603C16.7113 14.2661 16.7047 14.2768 16.6907 14.2894C16.6621 14.3152 16.6097 14.3416 16.537 14.3416V15.7416C17.3382 15.7416 18.1167 15.1413 18.1167 14.2499H16.7167ZM16.537 4.65825C16.6097 4.65825 16.6621 4.68464 16.6907 4.71043C16.7047 4.72303 16.7113 4.73373 16.714 4.7395C16.7163 4.74447 16.7167 4.74723 16.7167 4.74992H18.1167C18.1167 3.85854 17.3382 3.25825 16.537 3.25825V4.65825ZM2.46296 3.25825C1.66175 3.25825 0.883328 3.85854 0.883328 4.74992H2.28333C2.28333 4.74723 2.28364 4.74447 2.28598 4.7395C2.28869 4.73373 2.29525 4.72303 2.30924 4.71043C2.3379 4.68464 2.3903 4.65825 2.46296 4.65825V3.25825Z" fill="white"/>
<path d="M9.72618 10.2917L9.33235 10.8704L9.73766 11.1462L10.1354 10.8596L9.72618 10.2917ZM1.18949 5.3287L9.33235 10.8704L10.12 9.71297L1.97717 4.1713L1.18949 5.3287ZM10.1354 10.8596L17.8259 5.31792L17.0074 4.18208L9.31695 9.72375L10.1354 10.8596Z" fill="white"/>
</svg>
