<svg width="25" height="25" viewBox="0 0 25 25" fill="none" xmlns="http://www.w3.org/2000/svg">
<path d="M12.5 21.875C11.1843 20.7527 9.96476 19.5224 8.85415 18.1968C7.18748 16.2062 5.20831 13.2416 5.20831 10.4166C5.20684 7.46615 6.98357 4.80558 9.70943 3.67642C12.4353 2.54726 15.573 3.17209 17.6583 5.25934C19.0296 6.62455 19.7978 8.48162 19.7917 10.4166C19.7917 13.2416 17.8125 16.2062 16.1458 18.1968C15.0352 19.5224 13.8157 20.7527 12.5 21.875ZM12.5 7.29163C11.3835 7.29163 10.3519 7.88725 9.79365 8.85413C9.23542 9.82101 9.23542 11.0122 9.79365 11.9791C10.3519 12.946 11.3835 13.5416 12.5 13.5416C14.2259 13.5416 15.625 12.1425 15.625 10.4166C15.625 8.69074 14.2259 7.29163 12.5 7.29163Z" fill="#353A40"/>
<path d="M12.5 21.875C11.1843 20.7527 9.96476 19.5224 8.85415 18.1968C7.18748 16.2062 5.20831 13.2416 5.20831 10.4166C5.20684 7.46615 6.98357 4.80558 9.70943 3.67642C12.4353 2.54726 15.573 3.17209 17.6583 5.25934C19.0296 6.62455 19.7978 8.48162 19.7917 10.4166C19.7917 13.2416 17.8125 16.2062 16.1458 18.1968C15.0352 19.5224 13.8157 20.7527 12.5 21.875ZM12.5 7.29163C11.3835 7.29163 10.3519 7.88725 9.79365 8.85413C9.23542 9.82101 9.23542 11.0122 9.79365 11.9791C10.3519 12.946 11.3835 13.5416 12.5 13.5416C14.2259 13.5416 15.625 12.1425 15.625 10.4166C15.625 8.69074 14.2259 7.29163 12.5 7.29163Z" fill="black" fill-opacity="0.2"/>
</svg>
