<svg width="221" height="48" viewBox="0 0 221 48" fill="none" xmlns="http://www.w3.org/2000/svg">
<g clip-path="url(#clip0_2_472)">
<path d="M24 48C37.2548 48 48 37.2548 48 24C48 10.7452 37.2548 0 24 0C10.7452 0 0 10.7452 0 24C0 37.2548 10.7452 48 24 48Z" fill="white"/>
<path fill-rule="evenodd" clip-rule="evenodd" d="M5.4748 22.9148C15.1385 18.6811 21.5824 15.89 24.8067 14.5414C34.0125 10.6911 35.9254 10.0223 37.1722 10.0002C37.4465 9.99535 38.0596 10.0637 38.4568 10.3877C38.7921 10.6614 38.8844 11.031 38.9286 11.2905C38.9727 11.5499 39.0277 12.1409 38.984 12.6027C38.4851 17.8735 36.3265 30.6643 35.2283 36.5677C34.7637 39.0656 33.8487 39.9031 32.9629 39.9851C31.0379 40.1632 29.5761 38.7058 27.7116 37.4769C24.794 35.5537 23.1458 34.3566 20.3138 32.48C17.0409 30.3112 19.1626 29.1192 21.0278 27.1712C21.5159 26.6614 29.9977 18.9037 30.1618 18.2C30.1824 18.112 30.2014 17.7839 30.0076 17.6107C29.8138 17.4374 29.5277 17.4967 29.3213 17.5438C29.0286 17.6106 24.3678 20.7083 15.3387 26.837C14.0158 27.7505 12.8175 28.1956 11.7438 28.1723C10.5603 28.1466 8.28349 27.4994 6.59095 26.9461C4.51498 26.2676 2.86504 25.9088 3.00871 24.7564C3.08354 24.1561 3.90557 23.5423 5.4748 22.9148Z" fill="#2A85A2"/>
</g>
<path d="M60.3047 24.7676H53.7305L53.6953 21.1465H59.2148C60.1875 21.1465 60.9844 21.0234 61.6055 20.7773C62.2266 20.5195 62.6895 20.1504 62.9941 19.6699C63.3105 19.1777 63.4688 18.5801 63.4688 17.877C63.4688 17.0801 63.3164 16.4355 63.0117 15.9434C62.7188 15.4512 62.2559 15.0938 61.623 14.8711C61.002 14.6484 60.1992 14.5371 59.2148 14.5371H55.5586V36H50.2852V10.4062H59.2148C60.7031 10.4062 62.0332 10.5469 63.2051 10.8281C64.3887 11.1094 65.3906 11.5371 66.2109 12.1113C67.0312 12.6855 67.6582 13.4121 68.0918 14.291C68.5254 15.1582 68.7422 16.1895 68.7422 17.3848C68.7422 18.4395 68.502 19.4121 68.0215 20.3027C67.5527 21.1934 66.8086 21.9199 65.7891 22.4824C64.7812 23.0449 63.4629 23.3555 61.834 23.4141L60.3047 24.7676ZM60.0762 36H52.2891L54.3457 31.8867H60.0762C61.002 31.8867 61.7578 31.7402 62.3438 31.4473C62.9297 31.1426 63.3633 30.7324 63.6445 30.2168C63.9258 29.7012 64.0664 29.1094 64.0664 28.4414C64.0664 27.6914 63.9375 27.041 63.6797 26.4902C63.4336 25.9395 63.0352 25.5176 62.4844 25.2246C61.9336 24.9199 61.207 24.7676 60.3047 24.7676H55.2246L55.2598 21.1465H61.5879L62.8008 22.5703C64.3594 22.5469 65.6133 22.8223 66.5625 23.3965C67.5234 23.959 68.2207 24.6914 68.6543 25.5938C69.0996 26.4961 69.3223 27.4629 69.3223 28.4941C69.3223 30.1348 68.9648 31.5176 68.25 32.6426C67.5352 33.7559 66.4863 34.5938 65.1035 35.1562C63.7324 35.7188 62.0566 36 60.0762 36ZM81.7148 36.3516C80.2383 36.3516 78.9141 36.1172 77.7422 35.6484C76.5703 35.168 75.5742 34.5059 74.7539 33.6621C73.9453 32.8184 73.3242 31.8398 72.8906 30.7266C72.457 29.6016 72.2402 28.4062 72.2402 27.1406V26.4375C72.2402 24.9961 72.4453 23.6777 72.8555 22.4824C73.2656 21.2871 73.8516 20.25 74.6133 19.3711C75.3867 18.4922 76.3242 17.8184 77.4258 17.3496C78.5273 16.8691 79.7695 16.6289 81.1523 16.6289C82.5 16.6289 83.6953 16.8516 84.7383 17.2969C85.7812 17.7422 86.6543 18.375 87.3574 19.1953C88.0723 20.0156 88.6113 21 88.9746 22.1484C89.3379 23.2852 89.5195 24.5508 89.5195 25.9453V28.0547H74.4023V24.6797H84.5449V24.293C84.5449 23.5898 84.416 22.9629 84.1582 22.4121C83.9121 21.8496 83.5371 21.4043 83.0332 21.0762C82.5293 20.748 81.8848 20.584 81.0996 20.584C80.4316 20.584 79.8574 20.7305 79.377 21.0234C78.8965 21.3164 78.5039 21.7266 78.1992 22.2539C77.9062 22.7812 77.6836 23.4023 77.5312 24.1172C77.3906 24.8203 77.3203 25.5938 77.3203 26.4375V27.1406C77.3203 27.9023 77.4258 28.6055 77.6367 29.25C77.8594 29.8945 78.1699 30.4512 78.5684 30.9199C78.9785 31.3887 79.4707 31.752 80.0449 32.0098C80.6309 32.2676 81.293 32.3965 82.0312 32.3965C82.9453 32.3965 83.7949 32.2207 84.5801 31.8691C85.377 31.5059 86.0625 30.9609 86.6367 30.2344L89.0977 32.9062C88.6992 33.4805 88.1543 34.0312 87.4629 34.5586C86.7832 35.0859 85.9629 35.5195 85.002 35.8594C84.041 36.1875 82.9453 36.3516 81.7148 36.3516ZM102.686 30.7441C102.686 30.3809 102.58 30.0527 102.369 29.7598C102.158 29.4668 101.766 29.1973 101.191 28.9512C100.629 28.6934 99.8145 28.459 98.748 28.248C97.7871 28.0371 96.8906 27.7734 96.0586 27.457C95.2383 27.1289 94.5234 26.7363 93.9141 26.2793C93.3164 25.8223 92.8477 25.2832 92.5078 24.6621C92.168 24.0293 91.998 23.3086 91.998 22.5C91.998 21.7031 92.168 20.9531 92.5078 20.25C92.8594 19.5469 93.3574 18.9258 94.002 18.3867C94.6582 17.8359 95.4551 17.4082 96.3926 17.1035C97.3418 16.7871 98.4082 16.6289 99.5918 16.6289C101.244 16.6289 102.662 16.8926 103.846 17.4199C105.041 17.9473 105.955 18.6738 106.588 19.5996C107.232 20.5137 107.555 21.5566 107.555 22.7285H102.492C102.492 22.2363 102.387 21.7969 102.176 21.4102C101.977 21.0117 101.66 20.7012 101.227 20.4785C100.805 20.2441 100.254 20.127 99.5742 20.127C99.0117 20.127 98.5254 20.2266 98.1152 20.4258C97.7051 20.6133 97.3887 20.8711 97.166 21.1992C96.9551 21.5156 96.8496 21.8672 96.8496 22.2539C96.8496 22.5469 96.9082 22.8105 97.0254 23.0449C97.1543 23.2676 97.3594 23.4727 97.6406 23.6602C97.9219 23.8477 98.2852 24.0234 98.7305 24.1875C99.1875 24.3398 99.75 24.4805 100.418 24.6094C101.789 24.8906 103.014 25.2598 104.092 25.7168C105.17 26.1621 106.025 26.7715 106.658 27.5449C107.291 28.3066 107.607 29.3086 107.607 30.5508C107.607 31.3945 107.42 32.168 107.045 32.8711C106.67 33.5742 106.131 34.1895 105.428 34.7168C104.725 35.2324 103.881 35.6367 102.896 35.9297C101.924 36.2109 100.828 36.3516 99.6094 36.3516C97.8398 36.3516 96.3398 36.0352 95.1094 35.4023C93.8906 34.7695 92.9648 33.9668 92.332 32.9941C91.7109 32.0098 91.4004 31.002 91.4004 29.9707H96.1992C96.2227 30.6621 96.3984 31.2188 96.7266 31.6406C97.0664 32.0625 97.4941 32.3672 98.0098 32.5547C98.5371 32.7422 99.1055 32.8359 99.7148 32.8359C100.371 32.8359 100.916 32.748 101.35 32.5723C101.783 32.3848 102.111 32.1387 102.334 31.834C102.568 31.5176 102.686 31.1543 102.686 30.7441ZM120.211 16.9805V20.5664H109.137V16.9805H120.211ZM111.879 12.2871H116.941V30.2695C116.941 30.8203 117.012 31.2422 117.152 31.5352C117.305 31.8281 117.527 32.0332 117.82 32.1504C118.113 32.2559 118.482 32.3086 118.928 32.3086C119.244 32.3086 119.525 32.2969 119.771 32.2734C120.029 32.2383 120.246 32.2031 120.422 32.168L120.439 35.8945C120.006 36.0352 119.537 36.1465 119.033 36.2285C118.529 36.3105 117.973 36.3516 117.363 36.3516C116.25 36.3516 115.277 36.1699 114.445 35.8066C113.625 35.4316 112.992 34.834 112.547 34.0137C112.102 33.1934 111.879 32.1152 111.879 30.7793V12.2871Z" fill="#353A40"/>
<path d="M60.3047 24.7676H53.7305L53.6953 21.1465H59.2148C60.1875 21.1465 60.9844 21.0234 61.6055 20.7773C62.2266 20.5195 62.6895 20.1504 62.9941 19.6699C63.3105 19.1777 63.4688 18.5801 63.4688 17.877C63.4688 17.0801 63.3164 16.4355 63.0117 15.9434C62.7188 15.4512 62.2559 15.0938 61.623 14.8711C61.002 14.6484 60.1992 14.5371 59.2148 14.5371H55.5586V36H50.2852V10.4062H59.2148C60.7031 10.4062 62.0332 10.5469 63.2051 10.8281C64.3887 11.1094 65.3906 11.5371 66.2109 12.1113C67.0312 12.6855 67.6582 13.4121 68.0918 14.291C68.5254 15.1582 68.7422 16.1895 68.7422 17.3848C68.7422 18.4395 68.502 19.4121 68.0215 20.3027C67.5527 21.1934 66.8086 21.9199 65.7891 22.4824C64.7812 23.0449 63.4629 23.3555 61.834 23.4141L60.3047 24.7676ZM60.0762 36H52.2891L54.3457 31.8867H60.0762C61.002 31.8867 61.7578 31.7402 62.3438 31.4473C62.9297 31.1426 63.3633 30.7324 63.6445 30.2168C63.9258 29.7012 64.0664 29.1094 64.0664 28.4414C64.0664 27.6914 63.9375 27.041 63.6797 26.4902C63.4336 25.9395 63.0352 25.5176 62.4844 25.2246C61.9336 24.9199 61.207 24.7676 60.3047 24.7676H55.2246L55.2598 21.1465H61.5879L62.8008 22.5703C64.3594 22.5469 65.6133 22.8223 66.5625 23.3965C67.5234 23.959 68.2207 24.6914 68.6543 25.5938C69.0996 26.4961 69.3223 27.4629 69.3223 28.4941C69.3223 30.1348 68.9648 31.5176 68.25 32.6426C67.5352 33.7559 66.4863 34.5938 65.1035 35.1562C63.7324 35.7188 62.0566 36 60.0762 36ZM81.7148 36.3516C80.2383 36.3516 78.9141 36.1172 77.7422 35.6484C76.5703 35.168 75.5742 34.5059 74.7539 33.6621C73.9453 32.8184 73.3242 31.8398 72.8906 30.7266C72.457 29.6016 72.2402 28.4062 72.2402 27.1406V26.4375C72.2402 24.9961 72.4453 23.6777 72.8555 22.4824C73.2656 21.2871 73.8516 20.25 74.6133 19.3711C75.3867 18.4922 76.3242 17.8184 77.4258 17.3496C78.5273 16.8691 79.7695 16.6289 81.1523 16.6289C82.5 16.6289 83.6953 16.8516 84.7383 17.2969C85.7812 17.7422 86.6543 18.375 87.3574 19.1953C88.0723 20.0156 88.6113 21 88.9746 22.1484C89.3379 23.2852 89.5195 24.5508 89.5195 25.9453V28.0547H74.4023V24.6797H84.5449V24.293C84.5449 23.5898 84.416 22.9629 84.1582 22.4121C83.9121 21.8496 83.5371 21.4043 83.0332 21.0762C82.5293 20.748 81.8848 20.584 81.0996 20.584C80.4316 20.584 79.8574 20.7305 79.377 21.0234C78.8965 21.3164 78.5039 21.7266 78.1992 22.2539C77.9062 22.7812 77.6836 23.4023 77.5312 24.1172C77.3906 24.8203 77.3203 25.5938 77.3203 26.4375V27.1406C77.3203 27.9023 77.4258 28.6055 77.6367 29.25C77.8594 29.8945 78.1699 30.4512 78.5684 30.9199C78.9785 31.3887 79.4707 31.752 80.0449 32.0098C80.6309 32.2676 81.293 32.3965 82.0312 32.3965C82.9453 32.3965 83.7949 32.2207 84.5801 31.8691C85.377 31.5059 86.0625 30.9609 86.6367 30.2344L89.0977 32.9062C88.6992 33.4805 88.1543 34.0312 87.4629 34.5586C86.7832 35.0859 85.9629 35.5195 85.002 35.8594C84.041 36.1875 82.9453 36.3516 81.7148 36.3516ZM102.686 30.7441C102.686 30.3809 102.58 30.0527 102.369 29.7598C102.158 29.4668 101.766 29.1973 101.191 28.9512C100.629 28.6934 99.8145 28.459 98.748 28.248C97.7871 28.0371 96.8906 27.7734 96.0586 27.457C95.2383 27.1289 94.5234 26.7363 93.9141 26.2793C93.3164 25.8223 92.8477 25.2832 92.5078 24.6621C92.168 24.0293 91.998 23.3086 91.998 22.5C91.998 21.7031 92.168 20.9531 92.5078 20.25C92.8594 19.5469 93.3574 18.9258 94.002 18.3867C94.6582 17.8359 95.4551 17.4082 96.3926 17.1035C97.3418 16.7871 98.4082 16.6289 99.5918 16.6289C101.244 16.6289 102.662 16.8926 103.846 17.4199C105.041 17.9473 105.955 18.6738 106.588 19.5996C107.232 20.5137 107.555 21.5566 107.555 22.7285H102.492C102.492 22.2363 102.387 21.7969 102.176 21.4102C101.977 21.0117 101.66 20.7012 101.227 20.4785C100.805 20.2441 100.254 20.127 99.5742 20.127C99.0117 20.127 98.5254 20.2266 98.1152 20.4258C97.7051 20.6133 97.3887 20.8711 97.166 21.1992C96.9551 21.5156 96.8496 21.8672 96.8496 22.2539C96.8496 22.5469 96.9082 22.8105 97.0254 23.0449C97.1543 23.2676 97.3594 23.4727 97.6406 23.6602C97.9219 23.8477 98.2852 24.0234 98.7305 24.1875C99.1875 24.3398 99.75 24.4805 100.418 24.6094C101.789 24.8906 103.014 25.2598 104.092 25.7168C105.17 26.1621 106.025 26.7715 106.658 27.5449C107.291 28.3066 107.607 29.3086 107.607 30.5508C107.607 31.3945 107.42 32.168 107.045 32.8711C106.67 33.5742 106.131 34.1895 105.428 34.7168C104.725 35.2324 103.881 35.6367 102.896 35.9297C101.924 36.2109 100.828 36.3516 99.6094 36.3516C97.8398 36.3516 96.3398 36.0352 95.1094 35.4023C93.8906 34.7695 92.9648 33.9668 92.332 32.9941C91.7109 32.0098 91.4004 31.002 91.4004 29.9707H96.1992C96.2227 30.6621 96.3984 31.2188 96.7266 31.6406C97.0664 32.0625 97.4941 32.3672 98.0098 32.5547C98.5371 32.7422 99.1055 32.8359 99.7148 32.8359C100.371 32.8359 100.916 32.748 101.35 32.5723C101.783 32.3848 102.111 32.1387 102.334 31.834C102.568 31.5176 102.686 31.1543 102.686 30.7441ZM120.211 16.9805V20.5664H109.137V16.9805H120.211ZM111.879 12.2871H116.941V30.2695C116.941 30.8203 117.012 31.2422 117.152 31.5352C117.305 31.8281 117.527 32.0332 117.82 32.1504C118.113 32.2559 118.482 32.3086 118.928 32.3086C119.244 32.3086 119.525 32.2969 119.771 32.2734C120.029 32.2383 120.246 32.2031 120.422 32.168L120.439 35.8945C120.006 36.0352 119.537 36.1465 119.033 36.2285C118.529 36.3105 117.973 36.3516 117.363 36.3516C116.25 36.3516 115.277 36.1699 114.445 35.8066C113.625 35.4316 112.992 34.834 112.547 34.0137C112.102 33.1934 111.879 32.1152 111.879 30.7793V12.2871Z" fill="black" fill-opacity="0.2"/>
<path d="M134.854 10.4062V36H129.598V10.4062H134.854ZM142.729 10.4062V14.5371H121.846V10.4062H142.729ZM149.25 21.1289V36H144.188V16.9805H148.951L149.25 21.1289ZM154.98 16.8574L154.893 21.5508C154.646 21.5156 154.348 21.4863 153.996 21.4629C153.656 21.4277 153.346 21.4102 153.064 21.4102C152.35 21.4102 151.729 21.5039 151.201 21.6914C150.686 21.8672 150.252 22.1309 149.9 22.4824C149.561 22.834 149.303 23.2617 149.127 23.7656C148.963 24.2695 148.869 24.8438 148.846 25.4883L147.826 25.1719C147.826 23.9414 147.949 22.8105 148.195 21.7793C148.441 20.7363 148.799 19.8281 149.268 19.0547C149.748 18.2812 150.334 17.6836 151.025 17.2617C151.717 16.8398 152.508 16.6289 153.398 16.6289C153.68 16.6289 153.967 16.6523 154.26 16.6992C154.553 16.7344 154.793 16.7871 154.98 16.8574ZM167.039 31.7109V23.2383C167.039 22.6289 166.939 22.1074 166.74 21.6738C166.541 21.2285 166.23 20.8828 165.809 20.6367C165.398 20.3906 164.865 20.2676 164.209 20.2676C163.646 20.2676 163.16 20.3672 162.75 20.5664C162.34 20.7539 162.023 21.0293 161.801 21.3926C161.578 21.7441 161.467 22.1602 161.467 22.6406H156.404C156.404 21.832 156.592 21.0645 156.967 20.3379C157.342 19.6113 157.887 18.9727 158.602 18.4219C159.316 17.8594 160.166 17.4199 161.15 17.1035C162.146 16.7871 163.26 16.6289 164.49 16.6289C165.967 16.6289 167.279 16.875 168.428 17.3672C169.576 17.8594 170.479 18.5977 171.135 19.582C171.803 20.5664 172.137 21.7969 172.137 23.2734V31.4121C172.137 32.4551 172.201 33.3105 172.33 33.9785C172.459 34.6348 172.646 35.209 172.893 35.7012V36H167.777C167.531 35.4844 167.344 34.8398 167.215 34.0664C167.098 33.2812 167.039 32.4961 167.039 31.7109ZM167.707 24.416L167.742 27.2812H164.912C164.244 27.2812 163.664 27.3574 163.172 27.5098C162.68 27.6621 162.275 27.8789 161.959 28.1602C161.643 28.4297 161.408 28.7461 161.256 29.1094C161.115 29.4727 161.045 29.8711 161.045 30.3047C161.045 30.7383 161.145 31.1309 161.344 31.4824C161.543 31.8223 161.83 32.0918 162.205 32.291C162.58 32.4785 163.02 32.5723 163.523 32.5723C164.285 32.5723 164.947 32.4199 165.51 32.1152C166.072 31.8105 166.506 31.4355 166.811 30.9902C167.127 30.5449 167.291 30.123 167.303 29.7246L168.639 31.8691C168.451 32.3496 168.193 32.8477 167.865 33.3633C167.549 33.8789 167.145 34.3652 166.652 34.8223C166.16 35.2676 165.568 35.6367 164.877 35.9297C164.186 36.2109 163.365 36.3516 162.416 36.3516C161.209 36.3516 160.113 36.1113 159.129 35.6309C158.156 35.1387 157.383 34.4648 156.809 33.6094C156.246 32.7422 155.965 31.7578 155.965 30.6562C155.965 29.6602 156.152 28.7754 156.527 28.002C156.902 27.2285 157.453 26.5781 158.18 26.0508C158.918 25.5117 159.838 25.1074 160.939 24.8379C162.041 24.5566 163.318 24.416 164.771 24.416H167.707ZM182.227 32.3086L186.445 16.9805H191.736L185.32 36H182.121L182.227 32.3086ZM179.326 16.9805L183.562 32.3262L183.65 36H180.434L174.018 16.9805H179.326ZM202.512 36.3516C201.035 36.3516 199.711 36.1172 198.539 35.6484C197.367 35.168 196.371 34.5059 195.551 33.6621C194.742 32.8184 194.121 31.8398 193.688 30.7266C193.254 29.6016 193.037 28.4062 193.037 27.1406V26.4375C193.037 24.9961 193.242 23.6777 193.652 22.4824C194.062 21.2871 194.648 20.25 195.41 19.3711C196.184 18.4922 197.121 17.8184 198.223 17.3496C199.324 16.8691 200.566 16.6289 201.949 16.6289C203.297 16.6289 204.492 16.8516 205.535 17.2969C206.578 17.7422 207.451 18.375 208.154 19.1953C208.869 20.0156 209.408 21 209.771 22.1484C210.135 23.2852 210.316 24.5508 210.316 25.9453V28.0547H195.199V24.6797H205.342V24.293C205.342 23.5898 205.213 22.9629 204.955 22.4121C204.709 21.8496 204.334 21.4043 203.83 21.0762C203.326 20.748 202.682 20.584 201.896 20.584C201.229 20.584 200.654 20.7305 200.174 21.0234C199.693 21.3164 199.301 21.7266 198.996 22.2539C198.703 22.7812 198.48 23.4023 198.328 24.1172C198.188 24.8203 198.117 25.5938 198.117 26.4375V27.1406C198.117 27.9023 198.223 28.6055 198.434 29.25C198.656 29.8945 198.967 30.4512 199.365 30.9199C199.775 31.3887 200.268 31.752 200.842 32.0098C201.428 32.2676 202.09 32.3965 202.828 32.3965C203.742 32.3965 204.592 32.2207 205.377 31.8691C206.174 31.5059 206.859 30.9609 207.434 30.2344L209.895 32.9062C209.496 33.4805 208.951 34.0312 208.26 34.5586C207.58 35.0859 206.76 35.5195 205.799 35.8594C204.838 36.1875 203.742 36.3516 202.512 36.3516ZM218.543 9V36H213.463V9H218.543Z" fill="#2A85A2"/>
<defs>
<clipPath id="clip0_2_472">
<rect width="48" height="48" fill="white"/>
</clipPath>
</defs>
</svg>
