<svg width="25" height="25" viewBox="0 0 25 25" fill="none" xmlns="http://www.w3.org/2000/svg">
<path d="M17.7083 16.9038C20.1358 17.4758 21.875 19.0192 21.875 20.8334" stroke="#353A40" stroke-width="2" stroke-linecap="round" stroke-linejoin="round"/>
<path d="M17.7083 16.9038C20.1358 17.4758 21.875 19.0192 21.875 20.8334" stroke="black" stroke-opacity="0.2" stroke-width="2" stroke-linecap="round" stroke-linejoin="round"/>
<path d="M3.125 20.8333C3.125 18.5321 5.92322 16.6666 9.375 16.6666C12.8268 16.6666 15.625 18.5321 15.625 20.8333" stroke="#353A40" stroke-width="2" stroke-linecap="round" stroke-linejoin="round"/>
<path d="M3.125 20.8333C3.125 18.5321 5.92322 16.6666 9.375 16.6666C12.8268 16.6666 15.625 18.5321 15.625 20.8333" stroke="black" stroke-opacity="0.2" stroke-width="2" stroke-linecap="round" stroke-linejoin="round"/>
<path d="M15.625 13.5417C17.9262 13.5417 19.7917 11.6762 19.7917 9.37504C19.7917 7.07385 17.9262 5.20837 15.625 5.20837" stroke="#353A40" stroke-width="2" stroke-linecap="round" stroke-linejoin="round"/>
<path d="M15.625 13.5417C17.9262 13.5417 19.7917 11.6762 19.7917 9.37504C19.7917 7.07385 17.9262 5.20837 15.625 5.20837" stroke="black" stroke-opacity="0.2" stroke-width="2" stroke-linecap="round" stroke-linejoin="round"/>
<path d="M9.375 13.5417C11.6762 13.5417 13.5417 11.6762 13.5417 9.37504C13.5417 7.07385 11.6762 5.20837 9.375 5.20837C7.07381 5.20837 5.20833 7.07385 5.20833 9.37504C5.20833 11.6762 7.07381 13.5417 9.375 13.5417Z" stroke="#353A40" stroke-width="2" stroke-linecap="round" stroke-linejoin="round"/>
<path d="M9.375 13.5417C11.6762 13.5417 13.5417 11.6762 13.5417 9.37504C13.5417 7.07385 11.6762 5.20837 9.375 5.20837C7.07381 5.20837 5.20833 7.07385 5.20833 9.37504C5.20833 11.6762 7.07381 13.5417 9.375 13.5417Z" stroke="black" stroke-opacity="0.2" stroke-width="2" stroke-linecap="round" stroke-linejoin="round"/>
</svg>
