<svg width="37" height="37" viewBox="0 0 37 37" fill="none" xmlns="http://www.w3.org/2000/svg">
<path d="M18.5 24.6667L17.9697 25.197L18.5 25.7274L19.0303 25.197L18.5 24.6667ZM25.678 16.428L17.9697 24.1364L19.0303 25.197L26.7387 17.4887L25.678 16.428ZM19.0303 24.1364L11.322 16.428L10.2613 17.4887L17.9697 25.197L19.0303 24.1364Z" fill="#353A40"/>
<path d="M18.5 24.6667L17.9697 25.197L18.5 25.7274L19.0303 25.197L18.5 24.6667ZM25.678 16.428L17.9697 24.1364L19.0303 25.197L26.7387 17.4887L25.678 16.428ZM19.0303 24.1364L11.322 16.428L10.2613 17.4887L17.9697 25.197L19.0303 24.1364Z" fill="black" fill-opacity="0.2"/>
</svg>
